<svg xmlns="http://www.w3.org/2000/svg" version="1.1" xmlns:xlink="http://www.w3.org/1999/xlink" xmlns:svgjs="http://svgjs.dev/svgjs" width="1440" height="560" preserveAspectRatio="none" viewBox="0 0 1440 560"><g mask="url(&quot;#SvgjsMask1376&quot;)" fill="none"><rect width="1440" height="560" x="0" y="0" fill="url(&quot;#SvgjsLinearGradient1377&quot;)"></rect><path d="M301.271,58.398C324.593,59.415,348.504,50.412,360.226,30.225C371.99,9.966,368.377,-15.542,355.613,-35.187C343.943,-53.148,322.685,-60.962,301.271,-60.512C280.719,-60.081,261.183,-50.694,250.743,-32.985C240.142,-15.002,240.497,7.176,250.598,25.444C261.048,44.342,279.697,57.457,301.271,58.398" fill="rgba(28, 83, 142, 0.4)" class="triangle-float2"></path><path d="M1324.654,588.812C1351.133,589.298,1377.993,580.603,1392.184,558.243C1407.355,534.339,1407.478,504.1,1394.332,479.025C1380.145,451.963,1355.209,429.46,1324.654,429.433C1294.063,429.406,1268.474,451.557,1254.765,478.904C1242.403,503.564,1246.486,532.561,1261.288,555.838C1274.982,577.373,1299.138,588.343,1324.654,588.812" fill="rgba(28, 83, 142, 0.4)" class="triangle-float1"></path><path d="M978.3309924690985 410.91339025238887L913.6368302103472 496.7654432669354 999.4888832248937 561.4596055256868 1064.1830454836452 475.6075525111402z" fill="rgba(28, 83, 142, 0.4)" class="triangle-float3"></path><path d="M648.1700279774334 487.3190009201951L729.764861779097 402.82507706986905 645.270937928771 321.23024326820547 563.6761041271074 405.7241671185315z" fill="rgba(28, 83, 142, 0.4)" class="triangle-float3"></path><path d="M1116.275,289.137C1151.169,290.861,1189.81,286.003,1208.438,256.446C1227.98,225.438,1221.938,184.444,1201.382,154.099C1183.041,127.023,1148.976,120.079,1116.275,120.393C1084.273,120.7,1050.581,128.363,1033.953,155.707C1016.788,183.934,1021.295,219.942,1038.641,248.058C1055.118,274.764,1084.933,287.589,1116.275,289.137" fill="rgba(28, 83, 142, 0.4)" class="triangle-float3"></path><path d="M335.957,630.624C362.385,630.471,380.177,606.212,392.354,582.756C403.393,561.492,405.826,537.428,395.582,515.77C383.471,490.166,364.265,464.474,335.957,463.52C306.527,462.528,281.682,484.956,268.941,511.504C257.728,534.867,265.708,560.832,278.414,583.417C291.452,606.592,309.366,630.778,335.957,630.624" fill="rgba(28, 83, 142, 0.4)" class="triangle-float2"></path><path d="M-144.58 411.05 a179.79 179.79 0 1 0 359.58 0 a179.79 179.79 0 1 0 -359.58 0z" fill="rgba(28, 83, 142, 0.4)" class="triangle-float2"></path><path d="M1459.7931421443539 307.4229709624756L1317.5427380653114 324.88912436558155 1477.25929554746 449.67337504151817z" fill="rgba(28, 83, 142, 0.4)" class="triangle-float1"></path><path d="M575.3249500729348 568.4477968025L563.1439435862561 481.7754320590208 476.4715788427769 493.9564385456995 488.65258532945563 580.6288032891787z" fill="rgba(28, 83, 142, 0.4)" class="triangle-float3"></path><path d="M269.14 535.67 a99.52 99.52 0 1 0 199.04 0 a99.52 99.52 0 1 0 -199.04 0z" fill="rgba(28, 83, 142, 0.4)" class="triangle-float3"></path><path d="M277.07478475095655 126.18886392938788L391.5408264627886 30.140450546666486 295.49241308006714-84.32559116516552 181.02637136823517 11.722822217555887z" fill="rgba(28, 83, 142, 0.4)" class="triangle-float1"></path><path d="M1377.751,411.951C1422.99,409.574,1460.084,379.162,1481.716,339.359C1502.301,301.481,1503.024,256.757,1482.778,218.697C1461.145,178.03,1423.805,144.8,1377.751,143.914C1330.378,143.002,1289.901,173.912,1265.479,214.515C1240.171,256.591,1228.695,308.697,1252.966,351.38C1277.462,394.458,1328.263,414.551,1377.751,411.951" fill="rgba(28, 83, 142, 0.4)" class="triangle-float2"></path><path d="M453.043,234.26C507.32,237.723,559.997,206.603,584.959,158.283C608.28,113.139,590.029,61.702,565.039,17.46C539.492,-27.77,504.845,-71.4,453.043,-75.265C395.044,-79.592,333.134,-54.088,307.804,-1.733C284.439,46.561,319.266,97.434,347.385,143.123C373.513,185.577,403.294,231.085,453.043,234.26" fill="rgba(28, 83, 142, 0.4)" class="triangle-float1"></path><path d="M1309.136,531.583C1337.414,531.614,1359.674,509.274,1372.406,484.025C1383.851,461.328,1381.518,435.057,1368.953,412.961C1356.226,390.58,1334.839,374.262,1309.136,372.764C1280.563,371.099,1250.007,380.31,1235.886,405.205C1221.9,429.862,1231.889,459.363,1246.104,483.888C1260.265,508.321,1280.896,531.552,1309.136,531.583" fill="rgba(28, 83, 142, 0.4)" class="triangle-float1"></path></g><defs><mask id="SvgjsMask1376"><rect width="1440" height="560" fill="#ffffff"></rect></mask><linearGradient x1="15.28%" y1="-39.29%" x2="84.72%" y2="139.29%" gradientUnits="userSpaceOnUse" id="SvgjsLinearGradient1377"><stop stop-color="#0e2a47" offset="0"></stop><stop stop-color="rgba(255, 255, 255, 1)" offset="1"></stop></linearGradient><style>
                @keyframes float1 {
                    0%{transform: translate(0, 0)}
                    50%{transform: translate(-10px, 0)}
                    100%{transform: translate(0, 0)}
                }

                .triangle-float1 {
                    animation: float1 5s infinite;
                }

                @keyframes float2 {
                    0%{transform: translate(0, 0)}
                    50%{transform: translate(-5px, -5px)}
                    100%{transform: translate(0, 0)}
                }

                .triangle-float2 {
                    animation: float2 4s infinite;
                }

                @keyframes float3 {
                    0%{transform: translate(0, 0)}
                    50%{transform: translate(0, -10px)}
                    100%{transform: translate(0, 0)}
                }

                .triangle-float3 {
                    animation: float3 6s infinite;
                }
            </style></defs></svg>